<mxfile host="app.diagrams.net" modified="2022-10-16T05:01:27.072Z" agent="5.0 (Macintosh; Intel Mac OS X 10_15_7) AppleWebKit/537.36 (KHTML, like Gecko) Chrome/105.0.0.0 Safari/537.36" etag="6odY3XUE7Ea9sJYwgV-8" version="20.4.1" type="github">
  <diagram id="LcumRcBRr6USi84tn0P9" name="Page-1">
    <mxGraphModel dx="1042" dy="507" grid="1" gridSize="10" guides="1" tooltips="1" connect="1" arrows="1" fold="1" page="1" pageScale="1" pageWidth="827" pageHeight="1169" math="0" shadow="0">
      <root>
        <mxCell id="0" />
        <mxCell id="1" parent="0" />
        <mxCell id="bTGz799TzCsgq-tL2QBZ-2" value="AWS Cloud" style="points=[[0,0],[0.25,0],[0.5,0],[0.75,0],[1,0],[1,0.25],[1,0.5],[1,0.75],[1,1],[0.75,1],[0.5,1],[0.25,1],[0,1],[0,0.75],[0,0.5],[0,0.25]];outlineConnect=0;gradientColor=none;html=1;whiteSpace=wrap;fontSize=12;fontStyle=0;container=1;pointerEvents=0;collapsible=0;recursiveResize=0;shape=mxgraph.aws4.group;grIcon=mxgraph.aws4.group_vpc;strokeColor=#248814;fillColor=none;verticalAlign=top;align=left;spacingLeft=30;fontColor=#AAB7B8;dashed=0;" parent="1" vertex="1">
          <mxGeometry x="50" y="20" width="890" height="730" as="geometry" />
        </mxCell>
        <mxCell id="POhj-LKM1kwhmbA6X7bR-6" value="" style="edgeStyle=orthogonalEdgeStyle;rounded=0;orthogonalLoop=1;jettySize=auto;html=1;strokeColor=#0000FF;" parent="bTGz799TzCsgq-tL2QBZ-2" source="POhj-LKM1kwhmbA6X7bR-1" target="POhj-LKM1kwhmbA6X7bR-2" edge="1">
          <mxGeometry relative="1" as="geometry" />
        </mxCell>
        <mxCell id="POhj-LKM1kwhmbA6X7bR-1" value="Amazon S3" style="sketch=0;outlineConnect=0;fontColor=#232F3E;gradientColor=none;strokeColor=#ffffff;fillColor=#232F3E;dashed=0;verticalLabelPosition=middle;verticalAlign=bottom;align=center;html=1;whiteSpace=wrap;fontSize=10;fontStyle=1;spacing=3;shape=mxgraph.aws4.productIcon;prIcon=mxgraph.aws4.s3;" parent="bTGz799TzCsgq-tL2QBZ-2" vertex="1">
          <mxGeometry x="30" y="380" width="80" height="100" as="geometry" />
        </mxCell>
        <mxCell id="POhj-LKM1kwhmbA6X7bR-8" style="edgeStyle=orthogonalEdgeStyle;rounded=1;orthogonalLoop=1;jettySize=auto;html=1;strokeColor=#0000FF;entryX=0;entryY=0.5;entryDx=0;entryDy=0;entryPerimeter=0;" parent="bTGz799TzCsgq-tL2QBZ-2" source="POhj-LKM1kwhmbA6X7bR-2" target="V1oselqunodWBxak1BEi-46" edge="1">
          <mxGeometry relative="1" as="geometry">
            <mxPoint x="430" y="335" as="targetPoint" />
          </mxGeometry>
        </mxCell>
        <mxCell id="POhj-LKM1kwhmbA6X7bR-2" value="Amazon SageMaker" style="sketch=0;outlineConnect=0;fontColor=#232F3E;gradientColor=none;strokeColor=#ffffff;fillColor=#232F3E;dashed=0;verticalLabelPosition=middle;verticalAlign=bottom;align=center;html=1;whiteSpace=wrap;fontSize=10;fontStyle=1;spacing=3;shape=mxgraph.aws4.productIcon;prIcon=mxgraph.aws4.sagemaker;" parent="bTGz799TzCsgq-tL2QBZ-2" vertex="1">
          <mxGeometry x="214" y="375" width="80" height="110" as="geometry" />
        </mxCell>
        <mxCell id="POhj-LKM1kwhmbA6X7bR-7" style="edgeStyle=orthogonalEdgeStyle;rounded=1;orthogonalLoop=1;jettySize=auto;html=1;strokeColor=#0000FF;" parent="bTGz799TzCsgq-tL2QBZ-2" source="POhj-LKM1kwhmbA6X7bR-4" target="POhj-LKM1kwhmbA6X7bR-2" edge="1">
          <mxGeometry relative="1" as="geometry">
            <Array as="points">
              <mxPoint x="254" y="310" />
            </Array>
          </mxGeometry>
        </mxCell>
        <mxCell id="RA6L3MBb1GdkjHsxAYYN-1" style="edgeStyle=orthogonalEdgeStyle;rounded=0;orthogonalLoop=1;jettySize=auto;html=1;strokeColor=#0000FF;" parent="bTGz799TzCsgq-tL2QBZ-2" source="POhj-LKM1kwhmbA6X7bR-4" target="POhj-LKM1kwhmbA6X7bR-10" edge="1">
          <mxGeometry relative="1" as="geometry" />
        </mxCell>
        <mxCell id="POhj-LKM1kwhmbA6X7bR-4" value="Fine Tuned Model" style="sketch=0;outlineConnect=0;fontColor=#232F3E;gradientColor=none;fillColor=#067F68;strokeColor=none;dashed=0;verticalLabelPosition=bottom;verticalAlign=top;align=center;html=1;fontSize=12;fontStyle=0;aspect=fixed;pointerEvents=1;shape=mxgraph.aws4.sagemaker_model;" parent="bTGz799TzCsgq-tL2QBZ-2" vertex="1">
          <mxGeometry x="270" y="220" width="78" height="78" as="geometry" />
        </mxCell>
        <mxCell id="POhj-LKM1kwhmbA6X7bR-9" value="SageMaker Batch Job&amp;nbsp;" style="text;html=1;align=center;verticalAlign=middle;resizable=0;points=[];autosize=1;strokeColor=none;fillColor=none;" parent="bTGz799TzCsgq-tL2QBZ-2" vertex="1">
          <mxGeometry x="184" y="488.75" width="140" height="20" as="geometry" />
        </mxCell>
        <mxCell id="POhj-LKM1kwhmbA6X7bR-13" style="edgeStyle=orthogonalEdgeStyle;rounded=1;orthogonalLoop=1;jettySize=auto;html=1;strokeColor=#0000FF;entryX=0.5;entryY=0;entryDx=0;entryDy=0;" parent="bTGz799TzCsgq-tL2QBZ-2" source="POhj-LKM1kwhmbA6X7bR-10" target="V1oselqunodWBxak1BEi-11" edge="1">
          <mxGeometry relative="1" as="geometry">
            <mxPoint x="735" y="200" as="targetPoint" />
            <Array as="points">
              <mxPoint x="735" y="145" />
            </Array>
          </mxGeometry>
        </mxCell>
        <mxCell id="POhj-LKM1kwhmbA6X7bR-10" value="Amazon SageMaker" style="sketch=0;outlineConnect=0;fontColor=#232F3E;gradientColor=none;strokeColor=#ffffff;fillColor=#232F3E;dashed=0;verticalLabelPosition=middle;verticalAlign=bottom;align=center;html=1;whiteSpace=wrap;fontSize=10;fontStyle=1;spacing=3;shape=mxgraph.aws4.productIcon;prIcon=mxgraph.aws4.sagemaker;" parent="bTGz799TzCsgq-tL2QBZ-2" vertex="1">
          <mxGeometry x="450" y="90" width="80" height="110" as="geometry" />
        </mxCell>
        <mxCell id="POhj-LKM1kwhmbA6X7bR-12" value="SageMaker Endpoint" style="text;html=1;align=center;verticalAlign=middle;resizable=0;points=[];autosize=1;strokeColor=none;fillColor=none;" parent="bTGz799TzCsgq-tL2QBZ-2" vertex="1">
          <mxGeometry x="440" y="60" width="130" height="20" as="geometry" />
        </mxCell>
        <mxCell id="V1oselqunodWBxak1BEi-36" style="edgeStyle=orthogonalEdgeStyle;rounded=1;orthogonalLoop=1;jettySize=auto;html=1;exitX=0.75;exitY=0;exitDx=0;exitDy=0;" parent="bTGz799TzCsgq-tL2QBZ-2" source="V1oselqunodWBxak1BEi-11" target="POhj-LKM1kwhmbA6X7bR-10" edge="1">
          <mxGeometry relative="1" as="geometry">
            <Array as="points">
              <mxPoint x="760" y="383" />
              <mxPoint x="760" y="110" />
            </Array>
            <mxPoint x="760" y="200" as="sourcePoint" />
          </mxGeometry>
        </mxCell>
        <mxCell id="V1oselqunodWBxak1BEi-11" value="Search App" style="rounded=1;whiteSpace=wrap;html=1;" parent="bTGz799TzCsgq-tL2QBZ-2" vertex="1">
          <mxGeometry x="692.5" y="383" width="85" height="71.75" as="geometry" />
        </mxCell>
        <mxCell id="V1oselqunodWBxak1BEi-24" value="Corpus Data" style="text;html=1;align=center;verticalAlign=middle;resizable=0;points=[];autosize=1;strokeColor=none;fillColor=none;" parent="bTGz799TzCsgq-tL2QBZ-2" vertex="1">
          <mxGeometry x="30" y="480" width="80" height="20" as="geometry" />
        </mxCell>
        <mxCell id="a8oAyU4Jj5P3xdTLZoO_-1" style="edgeStyle=orthogonalEdgeStyle;rounded=1;orthogonalLoop=1;jettySize=auto;html=1;entryX=0;entryY=0.75;entryDx=0;entryDy=0;strokeColor=#FF0000;" parent="bTGz799TzCsgq-tL2QBZ-2" source="V1oselqunodWBxak1BEi-46" target="V1oselqunodWBxak1BEi-11" edge="1">
          <mxGeometry relative="1" as="geometry" />
        </mxCell>
        <mxCell id="V1oselqunodWBxak1BEi-46" value="" style="sketch=0;points=[[0,0,0],[0.25,0,0],[0.5,0,0],[0.75,0,0],[1,0,0],[0,1,0],[0.25,1,0],[0.5,1,0],[0.75,1,0],[1,1,0],[0,0.25,0],[0,0.5,0],[0,0.75,0],[1,0.25,0],[1,0.5,0],[1,0.75,0]];outlineConnect=0;fontColor=#232F3E;gradientColor=#945DF2;gradientDirection=north;fillColor=#5A30B5;strokeColor=#ffffff;dashed=0;verticalLabelPosition=bottom;verticalAlign=top;align=center;html=1;fontSize=12;fontStyle=0;aspect=fixed;shape=mxgraph.aws4.resourceIcon;resIcon=mxgraph.aws4.elasticsearch_service;" parent="bTGz799TzCsgq-tL2QBZ-2" vertex="1">
          <mxGeometry x="428" y="390.75" width="78" height="78" as="geometry" />
        </mxCell>
        <mxCell id="V1oselqunodWBxak1BEi-50" value="" style="edgeStyle=orthogonalEdgeStyle;html=1;endArrow=none;elbow=vertical;startArrow=block;startFill=1;strokeColor=#0000FF;rounded=1;entryX=0;entryY=0.25;entryDx=0;entryDy=0;exitX=1;exitY=0.25;exitDx=0;exitDy=0;exitPerimeter=0;" parent="bTGz799TzCsgq-tL2QBZ-2" source="V1oselqunodWBxak1BEi-46" target="V1oselqunodWBxak1BEi-11" edge="1">
          <mxGeometry width="100" relative="1" as="geometry">
            <mxPoint x="460" y="260" as="sourcePoint" />
            <mxPoint x="560" y="260" as="targetPoint" />
          </mxGeometry>
        </mxCell>
        <mxCell id="RA6L3MBb1GdkjHsxAYYN-5" style="edgeStyle=orthogonalEdgeStyle;rounded=0;orthogonalLoop=1;jettySize=auto;html=1;strokeColor=#0000FF;" parent="bTGz799TzCsgq-tL2QBZ-2" source="RA6L3MBb1GdkjHsxAYYN-2" target="POhj-LKM1kwhmbA6X7bR-4" edge="1">
          <mxGeometry relative="1" as="geometry" />
        </mxCell>
        <mxCell id="RA6L3MBb1GdkjHsxAYYN-2" value="Amazon SageMaker" style="sketch=0;outlineConnect=0;fontColor=#232F3E;gradientColor=none;strokeColor=#ffffff;fillColor=#232F3E;dashed=0;verticalLabelPosition=middle;verticalAlign=bottom;align=center;html=1;whiteSpace=wrap;fontSize=10;fontStyle=1;spacing=3;shape=mxgraph.aws4.productIcon;prIcon=mxgraph.aws4.sagemaker;" parent="bTGz799TzCsgq-tL2QBZ-2" vertex="1">
          <mxGeometry x="269" y="90" width="80" height="110" as="geometry" />
        </mxCell>
        <mxCell id="RA6L3MBb1GdkjHsxAYYN-3" value="SageMaker Training Job" style="text;html=1;align=center;verticalAlign=middle;resizable=0;points=[];autosize=1;strokeColor=none;fillColor=none;" parent="bTGz799TzCsgq-tL2QBZ-2" vertex="1">
          <mxGeometry x="234" y="50" width="150" height="30" as="geometry" />
        </mxCell>
        <mxCell id="RA6L3MBb1GdkjHsxAYYN-7" style="edgeStyle=orthogonalEdgeStyle;rounded=0;orthogonalLoop=1;jettySize=auto;html=1;strokeColor=#0000FF;" parent="bTGz799TzCsgq-tL2QBZ-2" source="RA6L3MBb1GdkjHsxAYYN-6" target="RA6L3MBb1GdkjHsxAYYN-2" edge="1">
          <mxGeometry relative="1" as="geometry" />
        </mxCell>
        <mxCell id="RA6L3MBb1GdkjHsxAYYN-6" value="Training Dataset" style="sketch=0;points=[[0,0,0],[0.25,0,0],[0.5,0,0],[0.75,0,0],[1,0,0],[0,1,0],[0.25,1,0],[0.5,1,0],[0.75,1,0],[1,1,0],[0,0.25,0],[0,0.5,0],[0,0.75,0],[1,0.25,0],[1,0.5,0],[1,0.75,0]];outlineConnect=0;fontColor=#232F3E;gradientColor=#60A337;gradientDirection=north;fillColor=#277116;strokeColor=#ffffff;dashed=0;verticalLabelPosition=bottom;verticalAlign=top;align=center;html=1;fontSize=12;fontStyle=0;aspect=fixed;shape=mxgraph.aws4.resourceIcon;resIcon=mxgraph.aws4.s3;" parent="bTGz799TzCsgq-tL2QBZ-2" vertex="1">
          <mxGeometry x="50" y="106" width="78" height="78" as="geometry" />
        </mxCell>
        <mxCell id="AnhF55gEWhIPYelOIDim-1" value="Amazon OpenSearch Service" style="text;html=1;align=center;verticalAlign=middle;resizable=0;points=[];autosize=1;strokeColor=none;fillColor=none;" parent="bTGz799TzCsgq-tL2QBZ-2" vertex="1">
          <mxGeometry x="376" y="463.75" width="180" height="30" as="geometry" />
        </mxCell>
        <mxCell id="AnhF55gEWhIPYelOIDim-3" style="edgeStyle=orthogonalEdgeStyle;rounded=1;orthogonalLoop=1;jettySize=auto;html=1;entryX=1;entryY=0.25;entryDx=0;entryDy=0;exitX=0;exitY=0.25;exitDx=0;exitDy=0;" parent="1" source="V1oselqunodWBxak1BEi-6" target="V1oselqunodWBxak1BEi-11" edge="1">
          <mxGeometry relative="1" as="geometry" />
        </mxCell>
        <mxCell id="V1oselqunodWBxak1BEi-6" value="" style="aspect=fixed;perimeter=ellipsePerimeter;html=1;align=center;shadow=0;dashed=0;spacingTop=3;image;image=img/lib/active_directory/laptop_client.svg;" parent="1" vertex="1">
          <mxGeometry x="970" y="382.53" width="83" height="92.22" as="geometry" />
        </mxCell>
        <mxCell id="V1oselqunodWBxak1BEi-20" value="Client" style="text;html=1;align=center;verticalAlign=middle;resizable=0;points=[];autosize=1;strokeColor=none;fillColor=none;" parent="1" vertex="1">
          <mxGeometry x="996.5" y="480" width="50" height="20" as="geometry" />
        </mxCell>
        <mxCell id="V1oselqunodWBxak1BEi-54" value="" style="endArrow=none;html=1;rounded=1;strokeColor=#000000;" parent="1" edge="1">
          <mxGeometry width="50" height="50" relative="1" as="geometry">
            <mxPoint x="940" y="70" as="sourcePoint" />
            <mxPoint x="990" y="70" as="targetPoint" />
          </mxGeometry>
        </mxCell>
        <mxCell id="V1oselqunodWBxak1BEi-56" value="Query Data" style="edgeLabel;html=1;align=center;verticalAlign=middle;resizable=0;points=[];" parent="V1oselqunodWBxak1BEi-54" vertex="1" connectable="0">
          <mxGeometry x="0.12" relative="1" as="geometry">
            <mxPoint x="57" as="offset" />
          </mxGeometry>
        </mxCell>
        <mxCell id="V1oselqunodWBxak1BEi-57" value="" style="endArrow=none;html=1;rounded=1;strokeColor=#0000FF;" parent="1" edge="1">
          <mxGeometry width="50" height="50" relative="1" as="geometry">
            <mxPoint x="940" y="100" as="sourcePoint" />
            <mxPoint x="990" y="100" as="targetPoint" />
          </mxGeometry>
        </mxCell>
        <mxCell id="V1oselqunodWBxak1BEi-58" value="Vector Data" style="edgeLabel;html=1;align=center;verticalAlign=middle;resizable=0;points=[];" parent="V1oselqunodWBxak1BEi-57" vertex="1" connectable="0">
          <mxGeometry x="0.12" relative="1" as="geometry">
            <mxPoint x="57" as="offset" />
          </mxGeometry>
        </mxCell>
        <mxCell id="AnhF55gEWhIPYelOIDim-2" style="edgeStyle=orthogonalEdgeStyle;rounded=1;orthogonalLoop=1;jettySize=auto;html=1;exitX=1;exitY=0.75;exitDx=0;exitDy=0;entryX=0.25;entryY=1;entryDx=0;entryDy=0;strokeColor=#FF3333;" parent="1" source="V1oselqunodWBxak1BEi-11" target="V1oselqunodWBxak1BEi-6" edge="1">
          <mxGeometry relative="1" as="geometry" />
        </mxCell>
        <mxCell id="zP5R7ZGuwA07F9I-d-Pe-1" value="" style="endArrow=none;html=1;rounded=1;strokeColor=#FF0000;" parent="1" edge="1">
          <mxGeometry width="50" height="50" relative="1" as="geometry">
            <mxPoint x="940" y="126" as="sourcePoint" />
            <mxPoint x="990" y="126" as="targetPoint" />
          </mxGeometry>
        </mxCell>
        <mxCell id="zP5R7ZGuwA07F9I-d-Pe-2" value="Result Data" style="edgeLabel;html=1;align=center;verticalAlign=middle;resizable=0;points=[];" parent="zP5R7ZGuwA07F9I-d-Pe-1" vertex="1" connectable="0">
          <mxGeometry x="0.12" relative="1" as="geometry">
            <mxPoint x="57" as="offset" />
          </mxGeometry>
        </mxCell>
      </root>
    </mxGraphModel>
  </diagram>
</mxfile>
